<svg width="126" height="134" viewBox="0 0 126 134" fill="none" xmlns="http://www.w3.org/2000/svg">
<path d="M78.0936 118.168C78.0936 126.842 71.0621 133.874 62.3883 133.874C53.7145 133.874 46.683 126.842 46.683 118.168L78.0936 118.168ZM16 15.9999H0.294716L0.294716 0.294586H16L16 15.9999ZM109.5 15.9999L109.5 0.294586H125.205L125.205 15.9999H109.5ZM62.3883 31.7052H16L16 0.294586H62.3883L62.3883 31.7052ZM62.3883 0.294586L109.5 0.294586L109.5 31.7052L62.3883 31.7052L62.3883 0.294586ZM46.683 118.168L46.683 67.0842L78.0936 67.0842L78.0936 118.168L46.683 118.168ZM46.683 67.0842L46.683 15.9999L78.0936 15.9999V67.0842L46.683 67.0842ZM125.205 15.9999V34.0842H93.7947V15.9999H125.205ZM76.5 82.7894H62.3883L62.3883 51.3789L76.5 51.3789L76.5 82.7894ZM31.7053 15.9999V34.0842H0.294716V15.9999H31.7053ZM49 51.3789H62.3883L62.3883 82.7894L49 82.7894L49 51.3789ZM31.7053 34.0842C31.7053 43.6358 39.4484 51.3789 49 51.3789L49 82.7894C22.1008 82.7894 0.294716 60.9834 0.294716 34.0842H31.7053ZM125.205 34.0842C125.205 60.9834 103.399 82.7894 76.5 82.7894L76.5 51.3789C86.0516 51.3789 93.7947 43.6358 93.7947 34.0842H125.205Z" fill="white" fill-opacity="0.5"/>
</svg>
