<svg width="339" height="339" viewBox="0 0 339 339" fill="none" xmlns="http://www.w3.org/2000/svg">
<g filter="url(#filter0_d_617_968)">
<ellipse cx="169.079" cy="169.079" rx="125.079" ry="125.079" fill="#08216A"/>
<path d="M169.079 296.043C239.199 296.043 296.043 239.199 296.043 169.079C296.043 98.959 239.199 42.1154 169.079 42.1154C98.959 42.1154 42.1154 98.959 42.1154 169.079C42.1154 239.199 98.959 296.043 169.079 296.043Z" stroke="#08216A" stroke-width="3.76927"/>
</g>
<mask id="mask0_617_968" style="mask-type:alpha" maskUnits="userSpaceOnUse" x="45" y="45" width="248" height="248">
<circle cx="169.079" cy="169.079" r="123.841" fill="#08216A"/>
</mask>
<g mask="url(#mask0_617_968)">
<g filter="url(#filter1_f_617_968)">
<ellipse cx="169.079" cy="299.112" rx="107.741" ry="107.741" fill="#3DCFF4"/>
</g>
<g filter="url(#filter2_i_617_968)">
<path d="M292.92 154.465C292.92 85.9149 237.474 45.2385 169.079 45.2385C112.112 45.2385 45.2383 88.5827 45.2383 154.465C45.2383 196.96 113.351 151.122 169.079 151.122C224.807 151.122 292.92 198.182 292.92 154.465Z" fill="url(#paint0_radial_617_968)"/>
<path d="M292.92 154.465C292.92 85.9149 237.474 45.2385 169.079 45.2385C112.112 45.2385 45.2383 88.5827 45.2383 154.465C45.2383 196.96 113.351 151.122 169.079 151.122C224.807 151.122 292.92 198.182 292.92 154.465Z" fill="white" fill-opacity="0.2"/>
</g>
<mask id="mask1_617_968" style="mask-type:alpha" maskUnits="userSpaceOnUse" x="45" y="45" width="248" height="129">
<path d="M292.92 154.465C292.92 85.9143 237.474 45.2379 169.079 45.2379C112.112 45.2379 45.2383 88.5821 45.2383 154.465C45.2383 196.96 113.351 151.741 169.079 151.741C224.807 151.741 292.92 198.181 292.92 154.465Z" fill="white"/>
</mask>
<g mask="url(#mask1_617_968)">
<g filter="url(#filter3_f_617_968)">
<path d="M292.92 169.079C292.92 100.684 237.474 45.2383 169.079 45.2383C100.684 45.2383 45.2383 100.684 45.2383 169.079" stroke="white" stroke-width="5.02569"/>
</g>
</g>
<g opacity="0.85" filter="url(#filter4_f_617_968)">
<path d="M300.243 168.46C300.243 233.786 242.162 287.858 169.08 287.858C95.9973 287.858 37.9165 233.786 37.9165 168.46C37.9165 103.133 95.9973 49.0615 169.08 49.0615C242.162 49.0615 300.243 103.133 300.243 168.46Z" stroke="#AFD4FF" stroke-width="15.0771"/>
</g>
<g style="mix-blend-mode:soft-light" opacity="0.7" filter="url(#filter5_f_617_968)">
<path d="M300.243 168.46C300.243 236.035 241.95 291.573 169.08 291.573C96.2092 291.573 37.9165 236.035 37.9165 168.46C37.9165 100.885 96.2092 45.3466 169.08 45.3466C241.95 45.3466 300.243 100.885 300.243 168.46Z" stroke="white" stroke-width="15.0771"/>
</g>
</g>
<g filter="url(#filter6_dd_617_968)">
<path d="M184.094 220.168C184.094 228.842 177.062 235.874 168.388 235.874C159.715 235.874 152.683 228.842 152.683 220.168H184.094ZM122 118H106.295L106.295 102.295H122L122 118ZM215.5 118V102.295H231.205V118H215.5ZM168.388 133.705H122L122 102.295H168.388L168.388 133.705ZM168.388 102.295L215.5 102.295V133.705H168.388L168.388 102.295ZM152.683 220.168V169.084H184.094V220.168H152.683ZM152.683 169.084L152.683 118L184.094 118L184.094 169.084H152.683ZM231.205 118V136.084H199.795V118H231.205ZM182.5 184.789H168.388V153.379H182.5V184.789ZM137.705 118V136.084H106.295V118H137.705ZM155 153.379H168.388V184.789H155V153.379ZM137.705 136.084C137.705 145.636 145.448 153.379 155 153.379V184.789C128.101 184.789 106.295 162.983 106.295 136.084H137.705ZM231.205 136.084C231.205 162.983 209.399 184.789 182.5 184.789V153.379C192.052 153.379 199.795 145.636 199.795 136.084H231.205Z" fill="url(#paint1_linear_617_968)"/>
</g>
<defs>
<filter id="filter0_d_617_968" x="0.0249443" y="0.0254326" width="338.108" height="338.108" filterUnits="userSpaceOnUse" color-interpolation-filters="sRGB">
<feFlood flood-opacity="0" result="BackgroundImageFix"/>
<feColorMatrix in="SourceAlpha" type="matrix" values="0 0 0 0 0 0 0 0 0 0 0 0 0 0 0 0 0 0 127 0" result="hardAlpha"/>
<feOffset/>
<feGaussianBlur stdDeviation="20.1028"/>
<feComposite in2="hardAlpha" operator="out"/>
<feColorMatrix type="matrix" values="0 0 0 0 0.0313726 0 0 0 0 0.129412 0 0 0 0 0.415686 0 0 0 0.55 0"/>
<feBlend mode="normal" in2="BackgroundImageFix" result="effect1_dropShadow_617_968"/>
<feBlend mode="normal" in="SourceGraphic" in2="effect1_dropShadow_617_968" result="shape"/>
</filter>
<filter id="filter1_f_617_968" x="-1.48325" y="128.549" width="341.125" height="341.125" filterUnits="userSpaceOnUse" color-interpolation-filters="sRGB">
<feFlood flood-opacity="0" result="BackgroundImageFix"/>
<feBlend mode="normal" in="SourceGraphic" in2="BackgroundImageFix" result="shape"/>
<feGaussianBlur stdDeviation="31.4106" result="effect1_foregroundBlur_617_968"/>
</filter>
<filter id="filter2_i_617_968" x="45.2383" y="38.9562" width="247.682" height="134.108" filterUnits="userSpaceOnUse" color-interpolation-filters="sRGB">
<feFlood flood-opacity="0" result="BackgroundImageFix"/>
<feBlend mode="normal" in="SourceGraphic" in2="BackgroundImageFix" result="shape"/>
<feColorMatrix in="SourceAlpha" type="matrix" values="0 0 0 0 0 0 0 0 0 0 0 0 0 0 0 0 0 0 127 0" result="hardAlpha"/>
<feOffset dy="-6.28211"/>
<feGaussianBlur stdDeviation="15.7053"/>
<feComposite in2="hardAlpha" operator="arithmetic" k2="-1" k3="1"/>
<feColorMatrix type="matrix" values="0 0 0 0 1 0 0 0 0 1 0 0 0 0 1 0 0 0 0.05 0"/>
<feBlend mode="normal" in2="shape" result="effect1_innerShadow_617_968"/>
</filter>
<filter id="filter3_f_617_968" x="30.1614" y="30.1614" width="277.835" height="151.482" filterUnits="userSpaceOnUse" color-interpolation-filters="sRGB">
<feFlood flood-opacity="0" result="BackgroundImageFix"/>
<feBlend mode="normal" in="SourceGraphic" in2="BackgroundImageFix" result="shape"/>
<feGaussianBlur stdDeviation="6.28211" result="effect1_foregroundBlur_617_968"/>
</filter>
<filter id="filter4_f_617_968" x="21.583" y="32.728" width="294.993" height="271.463" filterUnits="userSpaceOnUse" color-interpolation-filters="sRGB">
<feFlood flood-opacity="0" result="BackgroundImageFix"/>
<feBlend mode="normal" in="SourceGraphic" in2="BackgroundImageFix" result="shape"/>
<feGaussianBlur stdDeviation="4.39748" result="effect1_foregroundBlur_617_968"/>
</filter>
<filter id="filter5_f_617_968" x="21.583" y="29.0131" width="294.993" height="278.894" filterUnits="userSpaceOnUse" color-interpolation-filters="sRGB">
<feFlood flood-opacity="0" result="BackgroundImageFix"/>
<feBlend mode="normal" in="SourceGraphic" in2="BackgroundImageFix" result="shape"/>
<feGaussianBlur stdDeviation="4.39748" result="effect1_foregroundBlur_617_968"/>
</filter>
<filter id="filter6_dd_617_968" x="96.2435" y="92.2431" width="145.013" height="153.682" filterUnits="userSpaceOnUse" color-interpolation-filters="sRGB">
<feFlood flood-opacity="0" result="BackgroundImageFix"/>
<feColorMatrix in="SourceAlpha" type="matrix" values="0 0 0 0 0 0 0 0 0 0 0 0 0 0 0 0 0 0 127 0" result="hardAlpha"/>
<feOffset/>
<feGaussianBlur stdDeviation="2.51285"/>
<feComposite in2="hardAlpha" operator="out"/>
<feColorMatrix type="matrix" values="0 0 0 0 0 0 0 0 0 0 0 0 0 0 0 0 0 0 0.4 0"/>
<feBlend mode="normal" in2="BackgroundImageFix" result="effect1_dropShadow_617_968"/>
<feColorMatrix in="SourceAlpha" type="matrix" values="0 0 0 0 0 0 0 0 0 0 0 0 0 0 0 0 0 0 127 0" result="hardAlpha"/>
<feOffset/>
<feGaussianBlur stdDeviation="5.02569"/>
<feComposite in2="hardAlpha" operator="out"/>
<feColorMatrix type="matrix" values="0 0 0 0 0 0 0 0 0 0 0 0 0 0 0 0 0 0 0.7 0"/>
<feBlend mode="normal" in2="effect1_dropShadow_617_968" result="effect2_dropShadow_617_968"/>
<feBlend mode="normal" in="SourceGraphic" in2="effect2_dropShadow_617_968" result="shape"/>
</filter>
<radialGradient id="paint0_radial_617_968" cx="0" cy="0" r="1" gradientUnits="userSpaceOnUse" gradientTransform="translate(169.079 174.033) rotate(-90) scale(128.794 206.354)">
<stop stop-color="#0A2870"/>
<stop offset="0.45" stop-color="#103180"/>
<stop offset="1" stop-color="#E6EDFF"/>
</radialGradient>
<linearGradient id="paint1_linear_617_968" x1="210.494" y1="169.084" x2="126.282" y2="169.394" gradientUnits="userSpaceOnUse">
<stop stop-color="white"/>
<stop offset="1" stop-color="#DADEE8"/>
</linearGradient>
</defs>
</svg>
