<svg width="339" height="339" viewBox="0 0 339 339" fill="none" xmlns="http://www.w3.org/2000/svg">
<g filter="url(#filter0_d_618_1014)">
<ellipse cx="169.079" cy="169.079" rx="125.079" ry="125.079" fill="#08216A"/>
<path d="M169.079 296.043C239.199 296.043 296.043 239.199 296.043 169.079C296.043 98.959 239.199 42.1154 169.079 42.1154C98.959 42.1154 42.1154 98.959 42.1154 169.079C42.1154 239.199 98.959 296.043 169.079 296.043Z" stroke="#08216A" stroke-width="3.76927"/>
</g>
<path d="M184.094 220.168C184.094 228.842 177.062 235.874 168.388 235.874C159.715 235.874 152.683 228.842 152.683 220.168H184.094ZM122 118H106.295L106.295 102.295H122L122 118ZM215.5 118V102.295H231.205V118H215.5ZM168.388 133.705H122L122 102.295H168.388L168.388 133.705ZM168.388 102.295L215.5 102.295V133.705H168.388L168.388 102.295ZM152.683 220.168V169.084H184.094V220.168H152.683ZM152.683 169.084L152.683 118L184.094 118L184.094 169.084H152.683ZM231.205 118V136.084H199.795V118H231.205ZM182.5 184.789H168.388V153.379H182.5V184.789ZM137.705 118V136.084H106.295V118H137.705ZM155 153.379H168.388V184.789H155V153.379ZM137.705 136.084C137.705 145.636 145.448 153.379 155 153.379V184.789C128.101 184.789 106.295 162.983 106.295 136.084H137.705ZM231.205 136.084C231.205 162.983 209.399 184.789 182.5 184.789V153.379C192.052 153.379 199.795 145.636 199.795 136.084H231.205Z" fill="white"/>
<defs>
<filter id="filter0_d_618_1014" x="0.0249443" y="0.0254326" width="338.108" height="338.108" filterUnits="userSpaceOnUse" color-interpolation-filters="sRGB">
<feFlood flood-opacity="0" result="BackgroundImageFix"/>
<feColorMatrix in="SourceAlpha" type="matrix" values="0 0 0 0 0 0 0 0 0 0 0 0 0 0 0 0 0 0 127 0" result="hardAlpha"/>
<feOffset/>
<feGaussianBlur stdDeviation="20.1028"/>
<feComposite in2="hardAlpha" operator="out"/>
<feColorMatrix type="matrix" values="0 0 0 0 0.0313726 0 0 0 0 0.129412 0 0 0 0 0.415686 0 0 0 0.55 0"/>
<feBlend mode="normal" in2="BackgroundImageFix" result="effect1_dropShadow_618_1014"/>
<feBlend mode="normal" in="SourceGraphic" in2="effect1_dropShadow_618_1014" result="shape"/>
</filter>
</defs>
</svg>
